<?xml version="1.0" encoding="UTF-8" standalone="no"?>
<svg
   xmlns:dc="http://purl.org/dc/elements/1.1/"
   xmlns:cc="http://creativecommons.org/ns#"
   xmlns:rdf="http://www.w3.org/1999/02/22-rdf-syntax-ns#"
   xmlns:svg="http://www.w3.org/2000/svg"
   xmlns="http://www.w3.org/2000/svg"
   xmlns:sodipodi="http://sodipodi.sourceforge.net/DTD/sodipodi-0.dtd"
   xmlns:inkscape="http://www.inkscape.org/namespaces/inkscape"
   width="48"
   height="48"
   viewBox="0 0 12.7 12.7"
   version="1.1"
   id="svg8"
   inkscape:version="1.0.1 (1.0.1+r73)"
   sodipodi:docname="bootstrap.svg">
  <defs
     id="defs2">
    <linearGradient
       x1="79.822203"
       y1="21.346527"
       x2="32.862076"
       y2="105.42219"
       id="b"
       gradientTransform="scale(0.93682488,1.0674354)"
       gradientUnits="userSpaceOnUse">
      <stop
         stop-color="#41873F"
         offset="0%"
         id="stop833" />
      <stop
         stop-color="#418B3D"
         offset="32.88%"
         id="stop835" />
      <stop
         stop-color="#419637"
         offset="63.52%"
         id="stop837" />
      <stop
         stop-color="#3FA92D"
         offset="93.19%"
         id="stop839" />
      <stop
         stop-color="#3FAE2A"
         offset="100%"
         id="stop841" />
    </linearGradient>
    <path
       id="a"
       d="M57.903 1.85a5.957 5.957 0 0 0-5.894 0L3.352 29.933c-1.85 1.04-2.89 3.005-2.89 5.085v56.286c0 2.08 1.156 4.045 2.89 5.085l48.657 28.085a5.957 5.957 0 0 0 5.894 0l48.658-28.085c1.849-1.04 2.89-3.005 2.89-5.085V35.019c0-2.08-1.157-4.045-2.89-5.085L57.903 1.85z" />
    <linearGradient
       x1="51.368862"
       y1="64.594605"
       x2="184.67395"
       y2="-19.864828"
       id="d"
       gradientTransform="scale(0.92602084,1.0798893)"
       gradientUnits="userSpaceOnUse">
      <stop
         stop-color="#41873F"
         offset="13.76%"
         id="stop845" />
      <stop
         stop-color="#54A044"
         offset="40.32%"
         id="stop847" />
      <stop
         stop-color="#66B848"
         offset="71.36%"
         id="stop849" />
      <stop
         stop-color="#6CC04A"
         offset="90.81%"
         id="stop851" />
    </linearGradient>
    <linearGradient
       x1="5.4630943"
       y1="1.3961854"
       x2="60.624519"
       y2="1.3961854"
       id="e"
       gradientTransform="scale(1.6318162,0.6128141)"
       gradientUnits="userSpaceOnUse">
      <stop
         stop-color="#6CC04A"
         offset="9.192%"
         id="stop854" />
      <stop
         stop-color="#66B848"
         offset="28.64%"
         id="stop856" />
      <stop
         stop-color="#54A044"
         offset="59.68%"
         id="stop858" />
      <stop
         stop-color="#41873F"
         offset="86.24%"
         id="stop860" />
    </linearGradient>
    <linearGradient
       x1="-1.4223322"
       y1="66.989659"
       x2="120.27905"
       y2="66.989659"
       id="f"
       gradientTransform="scale(0.92514783,1.0809083)"
       gradientUnits="userSpaceOnUse">
      <stop
         stop-color="#6CC04A"
         offset="9.192%"
         id="stop863" />
      <stop
         stop-color="#66B848"
         offset="28.64%"
         id="stop865" />
      <stop
         stop-color="#54A044"
         offset="59.68%"
         id="stop867" />
      <stop
         stop-color="#41873F"
         offset="86.24%"
         id="stop869" />
    </linearGradient>
    <linearGradient
       x1="117.94696"
       y1="68.391641"
       x2="169.5617"
       y2="68.391641"
       id="g"
       gradientTransform="scale(0.65492335,1.5268962)"
       gradientUnits="userSpaceOnUse">
      <stop
         stop-color="#6CC04A"
         offset="9.192%"
         id="stop872" />
      <stop
         stop-color="#66B848"
         offset="28.64%"
         id="stop874" />
      <stop
         stop-color="#54A044"
         offset="59.68%"
         id="stop876" />
      <stop
         stop-color="#41873F"
         offset="86.24%"
         id="stop878" />
    </linearGradient>
    <linearGradient
       x1="-1.0387961"
       y1="150.7515"
       x2="87.897068"
       y2="150.7515"
       id="h"
       gradientTransform="scale(1.2659747,0.78990523)"
       gradientUnits="userSpaceOnUse">
      <stop
         stop-color="#6CC04A"
         offset="9.192%"
         id="stop881" />
      <stop
         stop-color="#66B848"
         offset="28.64%"
         id="stop883" />
      <stop
         stop-color="#54A044"
         offset="59.68%"
         id="stop885" />
      <stop
         stop-color="#41873F"
         offset="86.24%"
         id="stop887" />
    </linearGradient>
    <linearGradient
       x1="100.85387"
       y1="37.182247"
       x2="46.003895"
       y2="216.51322"
       id="i"
       gradientTransform="scale(1.2659747,0.78990523)"
       gradientUnits="userSpaceOnUse">
      <stop
         stop-color="#41873F"
         offset="0%"
         id="stop890" />
      <stop
         stop-color="#418B3D"
         offset="32.88%"
         id="stop892" />
      <stop
         stop-color="#419637"
         offset="63.52%"
         id="stop894" />
      <stop
         stop-color="#3FA92D"
         offset="93.19%"
         id="stop896" />
      <stop
         stop-color="#3FAE2A"
         offset="100%"
         id="stop898" />
    </linearGradient>
  </defs>
  <sodipodi:namedview
     id="base"
     pagecolor="#ffffff"
     bordercolor="#666666"
     borderopacity="1.0"
     inkscape:pageopacity="0.0"
     inkscape:pageshadow="2"
     inkscape:zoom="5.6"
     inkscape:cx="0.27020667"
     inkscape:cy="28.27197"
     inkscape:document-units="mm"
     inkscape:current-layer="layer1"
     inkscape:document-rotation="0"
     showgrid="false"
     units="px"
     inkscape:window-width="1920"
     inkscape:window-height="1021"
     inkscape:window-x="0"
     inkscape:window-y="27"
     inkscape:window-maximized="1" />
  <metadata
     id="metadata5">
    <rdf:RDF>
      <cc:Work
         rdf:about="">
        <dc:format>image/svg+xml</dc:format>
        <dc:type
           rdf:resource="http://purl.org/dc/dcmitype/StillImage" />
        <dc:title></dc:title>
      </cc:Work>
    </rdf:RDF>
  </metadata>
  <g
     inkscape:label="Layer 1"
     inkscape:groupmode="layer"
     id="layer1">
    <circle
       style="fill:#f9f7f7;stroke-width:0.354999;fill-opacity:1"
       id="path1002"
       cx="6.3499999"
       cy="6.3499999"
       r="5.3203244" />
    <g
       id="g1580"
       transform="matrix(0.00841998,0,0,0.00841998,3.7734861,3.7734861)">
      <path
         fill="#563d7c"
         d="m 612,510 c 0,56.1 -45.9,102 -102,102 H 102 C 45.9,612 0,566.1 0,510 V 102 C 0,45.9 45.9,0 102,0 h 408 c 56.1,0 102,45.9 102,102 z"
         id="path1566" />
      <path
         fill="#ffffff"
         d="m 166.3,133 h 173.5 c 32,0 57.7,7.3 77,22 19.3,14.7 29,36.8 29,66.5 0,18 -4.4,33.4 -13.2,46.2 -8.8,12.8 -21.4,22.8 -37.8,29.8 v 1 c 22,4.7 38.7,15.1 50,31.2 11.3,16.2 17,36.4 17,60.8 0,14 -2.5,27.1 -7.5,39.2 -5,12.2 -12.8,22.7 -23.5,31.5 -10.7,8.8 -24.3,15.8 -41,21 -16.7,5.2 -36.5,7.8 -59.5,7.8 h -164 z m 62.5,149.5 h 102 c 15,0 27.5,-4.2 37.5,-12.8 10,-8.6 15,-20.8 15,-36.8 0,-18 -4.5,-30.7 -13.5,-38 -9,-7.3 -22,-11 -39,-11 h -102 z m 0,156.5 h 110.5 c 19,0 33.8,-4.9 44.2,-14.8 10.5,-9.8 15.8,-23.8 15.8,-41.8 0,-17.7 -5.2,-31.2 -15.8,-40.8 -10.6,-9.6 -25.2,-14.2 -44.2,-14.2 H 228.8 Z"
         id="path1568" />
    </g>
  </g>
</svg>
