<?xml version="1.0" encoding="UTF-8" standalone="no"?>
<svg
   xmlns:dc="http://purl.org/dc/elements/1.1/"
   xmlns:cc="http://creativecommons.org/ns#"
   xmlns:rdf="http://www.w3.org/1999/02/22-rdf-syntax-ns#"
   xmlns:svg="http://www.w3.org/2000/svg"
   xmlns="http://www.w3.org/2000/svg"
   xmlns:sodipodi="http://sodipodi.sourceforge.net/DTD/sodipodi-0.dtd"
   xmlns:inkscape="http://www.inkscape.org/namespaces/inkscape"
   width="48"
   height="48"
   viewBox="0 0 12.7 12.7"
   version="1.1"
   id="svg8"
   inkscape:version="1.0.1 (1.0.1+r73)"
   sodipodi:docname="eslint.svg">
  <defs
     id="defs2">
    <linearGradient
       x1="79.822203"
       y1="21.346527"
       x2="32.862076"
       y2="105.42219"
       id="b"
       gradientTransform="scale(0.93682488,1.0674354)"
       gradientUnits="userSpaceOnUse">
      <stop
         stop-color="#41873F"
         offset="0%"
         id="stop833" />
      <stop
         stop-color="#418B3D"
         offset="32.88%"
         id="stop835" />
      <stop
         stop-color="#419637"
         offset="63.52%"
         id="stop837" />
      <stop
         stop-color="#3FA92D"
         offset="93.19%"
         id="stop839" />
      <stop
         stop-color="#3FAE2A"
         offset="100%"
         id="stop841" />
    </linearGradient>
    <path
       id="a"
       d="M57.903 1.85a5.957 5.957 0 0 0-5.894 0L3.352 29.933c-1.85 1.04-2.89 3.005-2.89 5.085v56.286c0 2.08 1.156 4.045 2.89 5.085l48.657 28.085a5.957 5.957 0 0 0 5.894 0l48.658-28.085c1.849-1.04 2.89-3.005 2.89-5.085V35.019c0-2.08-1.157-4.045-2.89-5.085L57.903 1.85z" />
    <linearGradient
       x1="51.368862"
       y1="64.594605"
       x2="184.67395"
       y2="-19.864828"
       id="d"
       gradientTransform="scale(0.92602084,1.0798893)"
       gradientUnits="userSpaceOnUse">
      <stop
         stop-color="#41873F"
         offset="13.76%"
         id="stop845" />
      <stop
         stop-color="#54A044"
         offset="40.32%"
         id="stop847" />
      <stop
         stop-color="#66B848"
         offset="71.36%"
         id="stop849" />
      <stop
         stop-color="#6CC04A"
         offset="90.81%"
         id="stop851" />
    </linearGradient>
    <linearGradient
       x1="5.4630943"
       y1="1.3961854"
       x2="60.624519"
       y2="1.3961854"
       id="e"
       gradientTransform="scale(1.6318162,0.6128141)"
       gradientUnits="userSpaceOnUse">
      <stop
         stop-color="#6CC04A"
         offset="9.192%"
         id="stop854" />
      <stop
         stop-color="#66B848"
         offset="28.64%"
         id="stop856" />
      <stop
         stop-color="#54A044"
         offset="59.68%"
         id="stop858" />
      <stop
         stop-color="#41873F"
         offset="86.24%"
         id="stop860" />
    </linearGradient>
    <linearGradient
       x1="-1.4223322"
       y1="66.989659"
       x2="120.27905"
       y2="66.989659"
       id="f"
       gradientTransform="scale(0.92514783,1.0809083)"
       gradientUnits="userSpaceOnUse">
      <stop
         stop-color="#6CC04A"
         offset="9.192%"
         id="stop863" />
      <stop
         stop-color="#66B848"
         offset="28.64%"
         id="stop865" />
      <stop
         stop-color="#54A044"
         offset="59.68%"
         id="stop867" />
      <stop
         stop-color="#41873F"
         offset="86.24%"
         id="stop869" />
    </linearGradient>
    <linearGradient
       x1="117.94696"
       y1="68.391641"
       x2="169.5617"
       y2="68.391641"
       id="g"
       gradientTransform="scale(0.65492335,1.5268962)"
       gradientUnits="userSpaceOnUse">
      <stop
         stop-color="#6CC04A"
         offset="9.192%"
         id="stop872" />
      <stop
         stop-color="#66B848"
         offset="28.64%"
         id="stop874" />
      <stop
         stop-color="#54A044"
         offset="59.68%"
         id="stop876" />
      <stop
         stop-color="#41873F"
         offset="86.24%"
         id="stop878" />
    </linearGradient>
    <linearGradient
       x1="-1.0387961"
       y1="150.7515"
       x2="87.897068"
       y2="150.7515"
       id="h"
       gradientTransform="scale(1.2659747,0.78990523)"
       gradientUnits="userSpaceOnUse">
      <stop
         stop-color="#6CC04A"
         offset="9.192%"
         id="stop881" />
      <stop
         stop-color="#66B848"
         offset="28.64%"
         id="stop883" />
      <stop
         stop-color="#54A044"
         offset="59.68%"
         id="stop885" />
      <stop
         stop-color="#41873F"
         offset="86.24%"
         id="stop887" />
    </linearGradient>
    <linearGradient
       x1="100.85387"
       y1="37.182247"
       x2="46.003895"
       y2="216.51322"
       id="i"
       gradientTransform="scale(1.2659747,0.78990523)"
       gradientUnits="userSpaceOnUse">
      <stop
         stop-color="#41873F"
         offset="0%"
         id="stop890" />
      <stop
         stop-color="#418B3D"
         offset="32.88%"
         id="stop892" />
      <stop
         stop-color="#419637"
         offset="63.52%"
         id="stop894" />
      <stop
         stop-color="#3FA92D"
         offset="93.19%"
         id="stop896" />
      <stop
         stop-color="#3FAE2A"
         offset="100%"
         id="stop898" />
    </linearGradient>
  </defs>
  <sodipodi:namedview
     id="base"
     pagecolor="#ffffff"
     bordercolor="#666666"
     borderopacity="1.0"
     inkscape:pageopacity="0.0"
     inkscape:pageshadow="2"
     inkscape:zoom="11.2"
     inkscape:cx="19.907385"
     inkscape:cy="14.380942"
     inkscape:document-units="mm"
     inkscape:current-layer="layer1"
     inkscape:document-rotation="0"
     showgrid="false"
     units="px"
     inkscape:window-width="1920"
     inkscape:window-height="1021"
     inkscape:window-x="0"
     inkscape:window-y="27"
     inkscape:window-maximized="1" />
  <metadata
     id="metadata5">
    <rdf:RDF>
      <cc:Work
         rdf:about="">
        <dc:format>image/svg+xml</dc:format>
        <dc:type
           rdf:resource="http://purl.org/dc/dcmitype/StillImage" />
        <dc:title></dc:title>
      </cc:Work>
    </rdf:RDF>
  </metadata>
  <g
     inkscape:label="Layer 1"
     inkscape:groupmode="layer"
     id="layer1">
    <circle
       style="fill:#f9f7f7;stroke-width:0.354999;fill-opacity:0.34851378"
       id="path1002"
       cx="6.3499999"
       cy="6.3499999"
       r="5.3203244" />
    <g
       id="g1347"
       transform="matrix(0.01919622,0,0,0.01919622,3.892879,4.1915962)">
      <path
         d="m 77.965,80.568 48.57,-28.042 a 3.929,3.929 0 0 1 3.93,0 l 48.57,28.042 A 3.932,3.932 0 0 1 181,83.971 v 56.084 c 0,1.403 -0.75,2.7 -1.965,3.403 l -48.57,28.042 a 3.929,3.929 0 0 1 -3.93,0 L 77.965,143.458 A 3.931,3.931 0 0 1 76,140.055 V 83.97 c 0.001,-1.404 0.75,-2.7 1.965,-3.403"
         fill="#8080f2"
         id="path1333" />
      <path
         d="M 254.417,107.417 196.323,6.35 C 194.213,2.696 190.315,0 186.095,0 H 69.906 c -4.22,0 -8.12,2.696 -10.23,6.35 L 1.583,107.194 c -2.11,3.655 -2.11,8.268 0,11.923 l 58.093,100.239 c 2.11,3.654 6.01,5.522 10.23,5.522 h 116.188 c 4.22,0 8.119,-1.812 10.228,-5.467 l 58.094,-100.402 c 2.112,-3.653 2.112,-7.938 0,-11.592 z m -48.105,48.6 c 0,1.485 -0.894,2.86 -2.182,3.604 l -73.999,42.693 a 4.21,4.21 0 0 1 -4.186,0 L 51.889,159.621 c -1.287,-0.744 -2.188,-2.118 -2.188,-3.605 V 70.628 c 0,-1.487 0.888,-2.86 2.176,-3.604 L 125.872,24.33 a 4.202,4.202 0 0 1 4.185,0 l 74.06,42.694 c 1.289,0.744 2.195,2.117 2.195,3.604 v 85.388 z"
         fill="#4b32c3"
         id="path1335" />
    </g>
  </g>
</svg>
