<?xml version="1.0" encoding="UTF-8" standalone="no"?>
<svg
   xmlns:dc="http://purl.org/dc/elements/1.1/"
   xmlns:cc="http://creativecommons.org/ns#"
   xmlns:rdf="http://www.w3.org/1999/02/22-rdf-syntax-ns#"
   xmlns:svg="http://www.w3.org/2000/svg"
   xmlns="http://www.w3.org/2000/svg"
   xmlns:sodipodi="http://sodipodi.sourceforge.net/DTD/sodipodi-0.dtd"
   xmlns:inkscape="http://www.inkscape.org/namespaces/inkscape"
   width="48"
   height="48"
   viewBox="0 0 12.7 12.7"
   version="1.1"
   id="svg8"
   inkscape:version="1.0.1 (1.0.1+r73)"
   sodipodi:docname="mongodb.svg">
  <defs
     id="defs2">
    <linearGradient
       x1="79.822203"
       y1="21.346527"
       x2="32.862076"
       y2="105.42219"
       id="b"
       gradientTransform="scale(0.93682488,1.0674354)"
       gradientUnits="userSpaceOnUse">
      <stop
         stop-color="#41873F"
         offset="0%"
         id="stop833" />
      <stop
         stop-color="#418B3D"
         offset="32.88%"
         id="stop835" />
      <stop
         stop-color="#419637"
         offset="63.52%"
         id="stop837" />
      <stop
         stop-color="#3FA92D"
         offset="93.19%"
         id="stop839" />
      <stop
         stop-color="#3FAE2A"
         offset="100%"
         id="stop841" />
    </linearGradient>
    <path
       id="a"
       d="M57.903 1.85a5.957 5.957 0 0 0-5.894 0L3.352 29.933c-1.85 1.04-2.89 3.005-2.89 5.085v56.286c0 2.08 1.156 4.045 2.89 5.085l48.657 28.085a5.957 5.957 0 0 0 5.894 0l48.658-28.085c1.849-1.04 2.89-3.005 2.89-5.085V35.019c0-2.08-1.157-4.045-2.89-5.085L57.903 1.85z" />
    <linearGradient
       x1="51.368862"
       y1="64.594605"
       x2="184.67395"
       y2="-19.864828"
       id="d"
       gradientTransform="scale(0.92602084,1.0798893)"
       gradientUnits="userSpaceOnUse">
      <stop
         stop-color="#41873F"
         offset="13.76%"
         id="stop845" />
      <stop
         stop-color="#54A044"
         offset="40.32%"
         id="stop847" />
      <stop
         stop-color="#66B848"
         offset="71.36%"
         id="stop849" />
      <stop
         stop-color="#6CC04A"
         offset="90.81%"
         id="stop851" />
    </linearGradient>
    <linearGradient
       x1="5.4630943"
       y1="1.3961854"
       x2="60.624519"
       y2="1.3961854"
       id="e"
       gradientTransform="scale(1.6318162,0.6128141)"
       gradientUnits="userSpaceOnUse">
      <stop
         stop-color="#6CC04A"
         offset="9.192%"
         id="stop854" />
      <stop
         stop-color="#66B848"
         offset="28.64%"
         id="stop856" />
      <stop
         stop-color="#54A044"
         offset="59.68%"
         id="stop858" />
      <stop
         stop-color="#41873F"
         offset="86.24%"
         id="stop860" />
    </linearGradient>
    <linearGradient
       x1="-1.4223322"
       y1="66.989659"
       x2="120.27905"
       y2="66.989659"
       id="f"
       gradientTransform="scale(0.92514783,1.0809083)"
       gradientUnits="userSpaceOnUse">
      <stop
         stop-color="#6CC04A"
         offset="9.192%"
         id="stop863" />
      <stop
         stop-color="#66B848"
         offset="28.64%"
         id="stop865" />
      <stop
         stop-color="#54A044"
         offset="59.68%"
         id="stop867" />
      <stop
         stop-color="#41873F"
         offset="86.24%"
         id="stop869" />
    </linearGradient>
    <linearGradient
       x1="117.94696"
       y1="68.391641"
       x2="169.5617"
       y2="68.391641"
       id="g"
       gradientTransform="scale(0.65492335,1.5268962)"
       gradientUnits="userSpaceOnUse">
      <stop
         stop-color="#6CC04A"
         offset="9.192%"
         id="stop872" />
      <stop
         stop-color="#66B848"
         offset="28.64%"
         id="stop874" />
      <stop
         stop-color="#54A044"
         offset="59.68%"
         id="stop876" />
      <stop
         stop-color="#41873F"
         offset="86.24%"
         id="stop878" />
    </linearGradient>
    <linearGradient
       x1="-1.0387961"
       y1="150.7515"
       x2="87.897068"
       y2="150.7515"
       id="h"
       gradientTransform="scale(1.2659747,0.78990523)"
       gradientUnits="userSpaceOnUse">
      <stop
         stop-color="#6CC04A"
         offset="9.192%"
         id="stop881" />
      <stop
         stop-color="#66B848"
         offset="28.64%"
         id="stop883" />
      <stop
         stop-color="#54A044"
         offset="59.68%"
         id="stop885" />
      <stop
         stop-color="#41873F"
         offset="86.24%"
         id="stop887" />
    </linearGradient>
    <linearGradient
       x1="100.85387"
       y1="37.182247"
       x2="46.003895"
       y2="216.51322"
       id="i"
       gradientTransform="scale(1.2659747,0.78990523)"
       gradientUnits="userSpaceOnUse">
      <stop
         stop-color="#41873F"
         offset="0%"
         id="stop890" />
      <stop
         stop-color="#418B3D"
         offset="32.88%"
         id="stop892" />
      <stop
         stop-color="#419637"
         offset="63.52%"
         id="stop894" />
      <stop
         stop-color="#3FA92D"
         offset="93.19%"
         id="stop896" />
      <stop
         stop-color="#3FAE2A"
         offset="100%"
         id="stop898" />
    </linearGradient>
  </defs>
  <sodipodi:namedview
     id="base"
     pagecolor="#ffffff"
     bordercolor="#666666"
     borderopacity="1.0"
     inkscape:pageopacity="0.0"
     inkscape:pageshadow="2"
     inkscape:zoom="7.9195959"
     inkscape:cx="18.289804"
     inkscape:cy="44.747645"
     inkscape:document-units="mm"
     inkscape:current-layer="layer1"
     inkscape:document-rotation="0"
     showgrid="false"
     units="px"
     inkscape:window-width="1920"
     inkscape:window-height="1021"
     inkscape:window-x="0"
     inkscape:window-y="27"
     inkscape:window-maximized="1" />
  <metadata
     id="metadata5">
    <rdf:RDF>
      <cc:Work
         rdf:about="">
        <dc:format>image/svg+xml</dc:format>
        <dc:type
           rdf:resource="http://purl.org/dc/dcmitype/StillImage" />
        <dc:title></dc:title>
      </cc:Work>
    </rdf:RDF>
  </metadata>
  <g
     inkscape:label="Layer 1"
     inkscape:groupmode="layer"
     id="layer1">
    <circle
       style="fill:#f9f7f7;stroke-width:0.354999;fill-opacity:1"
       id="path1002"
       cx="6.3499999"
       cy="6.3499999"
       r="5.3203244" />
    <g
       style="clip-rule:evenodd;fill-rule:evenodd;image-rendering:optimizeQuality;shape-rendering:geometricPrecision;text-rendering:geometricPrecision"
       id="g1277"
       transform="matrix(0.00461063,0,0,0.00461063,4.9694013,3.2762794)">
      <g
         fill-rule="nonzero"
         id="g1263">
        <path
           d="m 295.27,3.65 35.58,66.83 c 8,12.33 16.67,23.25 26.87,33.42 29.79,29.79 58.08,60.99 83.5,94.41 60.28,79.16 100.95,167.07 129.98,262.14 17.42,58.08 26.87,117.66 27.58,177.9 2.91,180.11 -58.83,334.76 -183.31,463.28 -20.33,20.33 -42.08,39.16 -65.41,55.91 -12.33,0 -18.17,-9.46 -23.25,-18.16 -9.45,-15.96 -15.25,-34.17 -18.16,-52.29 -4.38,-21.8 -7.25,-43.58 -5.83,-66.08 v -10.16 C 301.82,1008.68 290.95,8.78 295.28,3.66 v 0.01 z"
           fill="#599636"
           id="path1257" />
        <path
           d="m 295.27,1.43 c -1.46,-2.91 -2.91,-0.71 -4.38,0.71 0.71,14.58 -4.38,27.58 -12.33,40 C 269.81,54.47 258.23,63.94 246.6,74.1 182.03,130.01 131.2,197.55 90.49,273.08 36.33,374.74 8.41,483.68 0.5,598.38 c -3.62,41.37 13.09,187.36 26.13,229.48 35.58,111.82 99.49,205.52 182.27,286.84 20.33,19.58 42.08,37.74 64.58,55.2 6.54,0 7.25,-5.83 8.74,-10.17 2.85,-9.28 5.06,-18.76 6.54,-28.34 L 303.34,1022.49 295.26,1.43 Z"
           fill="#6cac48"
           id="path1259" />
        <path
           d="m 330.85,1201.77 c 1.46,-16.67 9.46,-30.5 18.17,-44.29 -8.75,-3.62 -15.25,-10.83 -20.33,-18.87 -4.38,-7.25 -8,-15.96 -10.83,-23.96 -10.17,-30.5 -12.33,-62.5 -15.25,-93.66 v -18.87 c -3.62,2.91 -4.38,27.58 -4.38,31.25 -2.03,32.85 -6.54,65.8 -13.08,98.05 -2.17,13.08 -3.62,26.12 -11.67,37.74 0,1.46 0,2.91 0.71,5.09 13.08,38.5 16.67,77.7 18.87,117.66 v 14.58 c 0,17.41 -0.71,13.74 13.75,19.58 5.83,2.17 12.33,2.91 18.16,7.25 4.38,0 5.09,-3.62 5.09,-6.54 l -2.17,-23.96 v -66.83 c -0.71,-11.67 1.46,-23.25 2.91,-34.16 z"
           fill="#c2bfbf"
           id="path1261" />
      </g>
    </g>
  </g>
</svg>
