<?xml version="1.0" encoding="UTF-8" standalone="no"?>
<svg
   xmlns:dc="http://purl.org/dc/elements/1.1/"
   xmlns:cc="http://creativecommons.org/ns#"
   xmlns:rdf="http://www.w3.org/1999/02/22-rdf-syntax-ns#"
   xmlns:svg="http://www.w3.org/2000/svg"
   xmlns="http://www.w3.org/2000/svg"
   xmlns:sodipodi="http://sodipodi.sourceforge.net/DTD/sodipodi-0.dtd"
   xmlns:inkscape="http://www.inkscape.org/namespaces/inkscape"
   width="48"
   height="48"
   viewBox="0 0 12.7 12.7"
   version="1.1"
   id="svg8"
   inkscape:version="1.0.1 (1.0.1+r73)"
   sodipodi:docname="redux.svg">
  <defs
     id="defs2">
    <linearGradient
       x1="79.822203"
       y1="21.346527"
       x2="32.862076"
       y2="105.42219"
       id="b"
       gradientTransform="scale(0.93682488,1.0674354)"
       gradientUnits="userSpaceOnUse">
      <stop
         stop-color="#41873F"
         offset="0%"
         id="stop833" />
      <stop
         stop-color="#418B3D"
         offset="32.88%"
         id="stop835" />
      <stop
         stop-color="#419637"
         offset="63.52%"
         id="stop837" />
      <stop
         stop-color="#3FA92D"
         offset="93.19%"
         id="stop839" />
      <stop
         stop-color="#3FAE2A"
         offset="100%"
         id="stop841" />
    </linearGradient>
    <path
       id="a"
       d="M57.903 1.85a5.957 5.957 0 0 0-5.894 0L3.352 29.933c-1.85 1.04-2.89 3.005-2.89 5.085v56.286c0 2.08 1.156 4.045 2.89 5.085l48.657 28.085a5.957 5.957 0 0 0 5.894 0l48.658-28.085c1.849-1.04 2.89-3.005 2.89-5.085V35.019c0-2.08-1.157-4.045-2.89-5.085L57.903 1.85z" />
    <linearGradient
       x1="51.368862"
       y1="64.594605"
       x2="184.67395"
       y2="-19.864828"
       id="d"
       gradientTransform="scale(0.92602084,1.0798893)"
       gradientUnits="userSpaceOnUse">
      <stop
         stop-color="#41873F"
         offset="13.76%"
         id="stop845" />
      <stop
         stop-color="#54A044"
         offset="40.32%"
         id="stop847" />
      <stop
         stop-color="#66B848"
         offset="71.36%"
         id="stop849" />
      <stop
         stop-color="#6CC04A"
         offset="90.81%"
         id="stop851" />
    </linearGradient>
    <linearGradient
       x1="5.4630943"
       y1="1.3961854"
       x2="60.624519"
       y2="1.3961854"
       id="e"
       gradientTransform="scale(1.6318162,0.6128141)"
       gradientUnits="userSpaceOnUse">
      <stop
         stop-color="#6CC04A"
         offset="9.192%"
         id="stop854" />
      <stop
         stop-color="#66B848"
         offset="28.64%"
         id="stop856" />
      <stop
         stop-color="#54A044"
         offset="59.68%"
         id="stop858" />
      <stop
         stop-color="#41873F"
         offset="86.24%"
         id="stop860" />
    </linearGradient>
    <linearGradient
       x1="-1.4223322"
       y1="66.989659"
       x2="120.27905"
       y2="66.989659"
       id="f"
       gradientTransform="scale(0.92514783,1.0809083)"
       gradientUnits="userSpaceOnUse">
      <stop
         stop-color="#6CC04A"
         offset="9.192%"
         id="stop863" />
      <stop
         stop-color="#66B848"
         offset="28.64%"
         id="stop865" />
      <stop
         stop-color="#54A044"
         offset="59.68%"
         id="stop867" />
      <stop
         stop-color="#41873F"
         offset="86.24%"
         id="stop869" />
    </linearGradient>
    <linearGradient
       x1="117.94696"
       y1="68.391641"
       x2="169.5617"
       y2="68.391641"
       id="g"
       gradientTransform="scale(0.65492335,1.5268962)"
       gradientUnits="userSpaceOnUse">
      <stop
         stop-color="#6CC04A"
         offset="9.192%"
         id="stop872" />
      <stop
         stop-color="#66B848"
         offset="28.64%"
         id="stop874" />
      <stop
         stop-color="#54A044"
         offset="59.68%"
         id="stop876" />
      <stop
         stop-color="#41873F"
         offset="86.24%"
         id="stop878" />
    </linearGradient>
    <linearGradient
       x1="-1.0387961"
       y1="150.7515"
       x2="87.897068"
       y2="150.7515"
       id="h"
       gradientTransform="scale(1.2659747,0.78990523)"
       gradientUnits="userSpaceOnUse">
      <stop
         stop-color="#6CC04A"
         offset="9.192%"
         id="stop881" />
      <stop
         stop-color="#66B848"
         offset="28.64%"
         id="stop883" />
      <stop
         stop-color="#54A044"
         offset="59.68%"
         id="stop885" />
      <stop
         stop-color="#41873F"
         offset="86.24%"
         id="stop887" />
    </linearGradient>
    <linearGradient
       x1="100.85387"
       y1="37.182247"
       x2="46.003895"
       y2="216.51322"
       id="i"
       gradientTransform="scale(1.2659747,0.78990523)"
       gradientUnits="userSpaceOnUse">
      <stop
         stop-color="#41873F"
         offset="0%"
         id="stop890" />
      <stop
         stop-color="#418B3D"
         offset="32.88%"
         id="stop892" />
      <stop
         stop-color="#419637"
         offset="63.52%"
         id="stop894" />
      <stop
         stop-color="#3FA92D"
         offset="93.19%"
         id="stop896" />
      <stop
         stop-color="#3FAE2A"
         offset="100%"
         id="stop898" />
    </linearGradient>
  </defs>
  <sodipodi:namedview
     id="base"
     pagecolor="#ffffff"
     bordercolor="#666666"
     borderopacity="1.0"
     inkscape:pageopacity="0.0"
     inkscape:pageshadow="2"
     inkscape:zoom="5.6"
     inkscape:cx="21.344052"
     inkscape:cy="20.32525"
     inkscape:document-units="mm"
     inkscape:current-layer="layer1"
     inkscape:document-rotation="0"
     showgrid="false"
     units="px"
     inkscape:window-width="1920"
     inkscape:window-height="1021"
     inkscape:window-x="0"
     inkscape:window-y="27"
     inkscape:window-maximized="1" />
  <metadata
     id="metadata5">
    <rdf:RDF>
      <cc:Work
         rdf:about="">
        <dc:format>image/svg+xml</dc:format>
        <dc:type
           rdf:resource="http://purl.org/dc/dcmitype/StillImage" />
        <dc:title></dc:title>
      </cc:Work>
    </rdf:RDF>
  </metadata>
  <g
     inkscape:label="Layer 1"
     inkscape:groupmode="layer"
     id="layer1">
    <circle
       style="fill:#f9f7f7;stroke-width:0.354999;fill-opacity:1"
       id="path1002"
       cx="6.3499999"
       cy="6.3499999"
       r="5.3203244" />
    <path
       d="m 7.5391586,7.5110719 c 0.227504,-0.02354 0.400094,-0.219667 0.392248,-0.455025 -0.0079,-0.235359 -0.203968,-0.4236439 -0.439318,-0.4236439 h -0.01569 c -0.243195,0.0079 -0.431474,0.211821 -0.423629,0.4550249 0.0079,0.117679 0.05492,0.219667 0.12552,0.290275 -0.26673,0.525632 -0.674669,0.91005 -1.286577,1.231706 C 5.4759286,8.829077 5.0444546,8.907529 4.6129806,8.852612 4.2599566,8.8055319 3.9853826,8.6486349 3.8127926,8.3897419 3.5617536,8.005323 3.5382186,7.5895249 3.7500326,7.1737269 c 0.149054,-0.298121 0.384404,-0.517789 0.533459,-0.627622 -0.03138,-0.101989 -0.07845,-0.274584 -0.101985,-0.400109 -1.137522,0.823753 -1.019848,1.93778 -0.674669,2.463413 0.258885,0.392264 0.784498,0.635467 1.365027,0.635467 0.1569,0 0.313798,-0.01569 0.470698,-0.05492 1.004158,-0.196131 1.765121,-0.792372 2.196595,-1.678887 z m 1.380716,-0.972813 c -0.596219,-0.698229 -1.474856,-1.082646 -2.479012,-1.082646 h -0.125521 c -0.0706,-0.141214 -0.219659,-0.235358 -0.384404,-0.235358 h -0.01569 c -0.243194,0.0079 -0.431473,0.211822 -0.423629,0.455025 0.0079,0.235358 0.203969,0.423644 0.439318,0.423644 h 0.01569 c 0.172589,-0.0079 0.321644,-0.117679 0.384404,-0.266738 h 0.141209 c 0.596219,0 1.161057,0.172595 1.670981,0.509942 0.392249,0.258894 0.674668,0.596241 0.831567,1.004194 0.133366,0.329501 0.12552,0.651157 -0.01569,0.925741 -0.219659,0.4158001 -0.588373,0.643312 -1.074762,0.643312 -0.313799,0 -0.611908,-0.09414 -0.768808,-0.164752 -0.0863,0.07845 -0.243194,0.203978 -0.353024,0.28243 0.337334,0.156906 0.682513,0.243204 1.012002,0.243204 0.753119,0 1.310112,-0.415799 1.521926,-0.831599 0.227505,-0.455024 0.211815,-1.239551 -0.376559,-1.906399 z m -3.985248,1.106183 c 0.0079,0.235358 0.203969,0.423644 0.439319,0.423644 h 0.01569 c 0.243194,-0.0079 0.431473,-0.211822 0.423629,-0.455025 -0.0079,-0.235358 -0.20397,-0.423645 -0.439319,-0.423645 h -0.01569 c -0.01569,0 -0.03923,0 -0.05492,0.0079 -0.321643,-0.533479 -0.455008,-1.114029 -0.407937,-1.74165 0.03138,-0.470715 0.188278,-0.87867 0.462853,-1.2160156 0.227504,-0.2902757 0.666824,-0.4314902 0.964932,-0.4393349 0.831569,-0.01569 1.184592,1.0198845 1.208127,1.4356835 0.101985,0.02354 0.274574,0.07845 0.392249,0.117679 -0.09414,-1.2709335 -0.878638,-1.9299349 -1.631756,-1.9299349 -0.706048,0 -1.357181,0.5099422 -1.616066,1.2630869 -0.360868,1.004194 -0.125518,1.969162 0.3138,2.730152 -0.03923,0.05492 -0.06276,0.141215 -0.05492,0.227513 z"
       fill="#764abc"
       id="path1098"
       style="stroke-width:0.0240813" />
  </g>
</svg>
